{
	"asset":{
		"generator":"Khronos glTF Blender I/O v3.6.27",
		"version":"2.0"
	},
	"scene":0,
	"scenes":[
		{
			"name":"Scene",
			"nodes":[
				0
			]
		}
	],
	"nodes":[
		{
			"mesh":0,
			"name":"Power Drill-obj"
		}
	],
	"materials":[
		{
			"doubleSided":true,
			"name":"material_0",
			"pbrMetallicRoughness":{
				"baseColorTexture":{
					"index":0
				},
				"metallicFactor":0,
				"roughnessFactor":0.5
			}
		}
	],
	"meshes":[
		{
			"name":"Power Drill-obj",
			"primitives":[
				{
					"attributes":{
						"POSITION":0,
						"NORMAL":1,
						"TEXCOORD_0":2
					},
					"indices":3,
					"material":0
				}
			]
		}
	],
	"textures":[
		{
			"sampler":0,
			"source":0
		}
	],
	"images":[
		{
			"mimeType":"image/jpeg",
			"name":"Power Drill_HP_BC",
			"uri":"Power%20Drill_HP_BC.jpg"
		}
	],
	"accessors":[
		{
			"bufferView":0,
			"componentType":5126,
			"count":13905,
			"max":[
				0.05210671201348305,
				0.30230650305747986,
				0.14624722301959991
			],
			"min":[
				-0.04877062886953354,
				-0.0003477964492049068,
				-0.16061756014823914
			],
			"type":"VEC3"
		},
		{
			"bufferView":1,
			"componentType":5126,
			"count":13905,
			"type":"VEC3"
		},
		{
			"bufferView":2,
			"componentType":5126,
			"count":13905,
			"type":"VEC2"
		},
		{
			"bufferView":3,
			"componentType":5123,
			"count":29910,
			"type":"SCALAR"
		}
	],
	"bufferViews":[
		{
			"buffer":0,
			"byteLength":166860,
			"byteOffset":0,
			"target":34962
		},
		{
			"buffer":0,
			"byteLength":166860,
			"byteOffset":166860,
			"target":34962
		},
		{
			"buffer":0,
			"byteLength":111240,
			"byteOffset":333720,
			"target":34962
		},
		{
			"buffer":0,
			"byteLength":59820,
			"byteOffset":444960,
			"target":34963
		}
	],
	"samplers":[
		{
			"magFilter":9729,
			"minFilter":9987
		}
	],
	"buffers":[
		{
			"byteLength":504780,
			"uri":"PowerDrill_v00010001.bin"
		}
	]
}
